<svg id="Layer_1" data-name="Layer 1" xmlns="http://www.w3.org/2000/svg" xmlns:xlink="http://www.w3.org/1999/xlink" viewBox="0 0 1656.6 338.48"><defs><style>.cls-1{fill:#535458;}.cls-2{fill:#00b0a9;}.cls-3{fill:url(#linear-gradient);}.cls-4{fill:url(#linear-gradient-2);}.cls-5{fill:url(#linear-gradient-3);}.cls-6{fill:url(#linear-gradient-4);}.cls-7{fill:#fff;}</style><linearGradient id="linear-gradient" x1="374.58" y1="-47.04" x2="35.09" y2="306.95" gradientUnits="userSpaceOnUse"><stop offset="0.06" stop-color="#00b0a9"/><stop offset="0.7" stop-color="#3f3a94"/></linearGradient><linearGradient id="linear-gradient-2" x1="410.92" y1="-12.19" x2="71.42" y2="341.8" xlink:href="#linear-gradient"/><linearGradient id="linear-gradient-3" x1="426.13" y1="2.4" x2="86.63" y2="356.39" xlink:href="#linear-gradient"/><linearGradient id="linear-gradient-4" x1="517.29" y1="89.82" x2="177.79" y2="443.81" xlink:href="#linear-gradient"/></defs><path class="cls-1" d="M576,110a28.92,28.92,0,0,1,6.22,18.26q0,14.82-10.35,23.48T543,160.42H488V42.27h53.18q18,0,28.19,8.25T579.52,72.9q0,10.44-5.47,17.34a28.24,28.24,0,0,1-14.55,9.59A27.48,27.48,0,0,1,576,110ZM516.75,90.07H535.6q7.06,0,10.85-3.12t3.79-9.17q0-6.06-3.79-9.25t-10.85-3.2H516.75Zm32.4,43.84q3.95-3.28,4-9.51T549,114.64q-4.12-3.54-11.36-3.53H516.75v26.08H538Q545.19,137.19,549.15,133.91Z" transform="translate(-43.76 -25.61)"/><path class="cls-1" d="M598.45,52.29a14.49,14.49,0,0,1-4.79-11,14.66,14.66,0,0,1,4.79-11.19q4.8-4.45,12.37-4.46A17.25,17.25,0,0,1,623,30.07a14.66,14.66,0,0,1,4.79,11.19,14.49,14.49,0,0,1-4.79,11,17.25,17.25,0,0,1-12.21,4.46Q603.26,56.75,598.45,52.29Zm26.68,14.22v93.91H596.35V66.51Z" transform="translate(-43.76 -25.61)"/><path class="cls-1" d="M661.4,155.87A43.06,43.06,0,0,1,644.06,139q-6.3-10.93-6.31-25.58,0-14.47,6.4-25.5a43.4,43.4,0,0,1,17.5-16.91,55.6,55.6,0,0,1,49.81,0A43.49,43.49,0,0,1,729,88q6.39,11,6.39,25.5T728.88,139a43.76,43.76,0,0,1-17.67,16.91,52.78,52.78,0,0,1-25,5.89A51.76,51.76,0,0,1,661.4,155.87Zm38.87-25.07q5.81-6.06,5.81-17.34t-5.64-17.33A19.13,19.13,0,0,0,672.59,96Q667,102,667,113.46q0,11.28,5.47,17.34a17.73,17.73,0,0,0,13.72,6A18.76,18.76,0,0,0,700.27,130.8Z" transform="translate(-43.76 -25.61)"/><path class="cls-1" d="M800.49,136v24.41H785.85q-15.65,0-24.4-7.66t-8.75-25V90.4H741.25V66.51H752.7V43.62h28.78V66.51h18.84V90.4H781.48v37.7q0,4.22,2,6.06c1.35,1.24,3.59,1.85,6.74,1.85Z" transform="translate(-43.76 -25.61)"/><path class="cls-1" d="M902,120.36H836.84q.67,8.76,5.64,13.38a17.21,17.21,0,0,0,12.2,4.63q10.77,0,15-9.09h30.63a41.92,41.92,0,0,1-8.5,16.66,42.5,42.5,0,0,1-15.4,11.61,49.38,49.38,0,0,1-20.7,4.21,50.33,50.33,0,0,1-24.57-5.89A41.82,41.82,0,0,1,814.29,139q-6.06-10.93-6.06-25.58t6-25.58A41.36,41.36,0,0,1,831,71.05a50.81,50.81,0,0,1,24.74-5.89,50.29,50.29,0,0,1,24.24,5.72A41.08,41.08,0,0,1,896.5,87.21q6,10.59,6,24.74A72.6,72.6,0,0,1,902,120.36Zm-28.94-16a14.83,14.83,0,0,0-5-11.78,18.63,18.63,0,0,0-12.62-4.37,18.26,18.26,0,0,0-12.21,4.2q-5,4.22-6.14,12Z" transform="translate(-43.76 -25.61)"/><path class="cls-1" d="M915.35,87.88A41.54,41.54,0,0,1,932,71.05a50,50,0,0,1,24.49-5.89q17.67,0,29.54,9.26t15.56,26.08H971q-3.87-10.77-15-10.77a15.11,15.11,0,0,0-12.63,6.14q-4.71,6.15-4.71,17.59t4.71,17.59A15.09,15.09,0,0,0,956,137.19q11.1,0,15-10.77h30.63q-3.71,16.5-15.65,25.92t-29.45,9.42A49.88,49.88,0,0,1,932,155.87,41.42,41.42,0,0,1,915.35,139q-6-10.93-6-25.58T915.35,87.88Z" transform="translate(-43.76 -25.61)"/><path class="cls-1" d="M1098,76.18q9.75,10.69,9.76,29.37v54.87h-28.61v-51q0-9.42-4.88-14.64t-13.13-5.22q-8.25,0-13.13,5.22t-4.88,14.64v51h-28.78V35.88h28.78V79.13a30.8,30.8,0,0,1,11.95-9.93,38.16,38.16,0,0,1,17-3.7Q1088.28,65.5,1098,76.18Z" transform="translate(-43.76 -25.61)"/><path class="cls-1" d="M1208.86,76.18q9.84,10.69,9.84,29.37v54.87h-28.61v-51q0-9.42-4.88-14.64t-13.13-5.22q-8.25,0-13.13,5.22t-4.88,14.64v51H1125.3V66.51h28.77V79a30.37,30.37,0,0,1,11.79-9.84,37.29,37.29,0,0,1,16.66-3.62Q1199,65.5,1208.86,76.18Z" transform="translate(-43.76 -25.61)"/><path class="cls-1" d="M1254.12,155.87A43.1,43.1,0,0,1,1236.79,139q-6.32-10.93-6.31-25.58,0-14.47,6.4-25.5a43.4,43.4,0,0,1,17.5-16.91,55.6,55.6,0,0,1,49.81,0A43.49,43.49,0,0,1,1321.7,88q6.39,11,6.39,25.5t-6.48,25.5a43.76,43.76,0,0,1-17.67,16.91,52.78,52.78,0,0,1-25,5.89A51.83,51.83,0,0,1,1254.12,155.87ZM1293,130.8q5.8-6.06,5.81-17.34t-5.64-17.33a19.13,19.13,0,0,0-27.85-.09q-5.55,6-5.56,17.42,0,11.28,5.47,17.34a17.73,17.73,0,0,0,13.72,6A18.76,18.76,0,0,0,1293,130.8Z" transform="translate(-43.76 -25.61)"/><path class="cls-1" d="M1369.66,35.88V160.42h-28.78V35.88Z" transform="translate(-43.76 -25.61)"/><path class="cls-1" d="M1405.93,155.87A43.06,43.06,0,0,1,1388.59,139q-6.3-10.93-6.31-25.58,0-14.47,6.4-25.5a43.4,43.4,0,0,1,17.5-16.91,55.6,55.6,0,0,1,49.81,0A43.49,43.49,0,0,1,1473.5,88q6.39,11,6.39,25.5t-6.48,25.5a43.76,43.76,0,0,1-17.67,16.91,52.78,52.78,0,0,1-25,5.89A51.76,51.76,0,0,1,1405.93,155.87Zm38.87-25.07q5.81-6.06,5.81-17.34T1445,96.13a19.13,19.13,0,0,0-27.85-.09q-5.55,6-5.56,17.42,0,11.28,5.47,17.34a17.73,17.73,0,0,0,13.72,6A18.76,18.76,0,0,0,1444.8,130.8Z" transform="translate(-43.76 -25.61)"/><path class="cls-1" d="M1545.78,69.2a29.78,29.78,0,0,1,11.53,10.6V66.51h28.78v93.74a52.67,52.67,0,0,1-5.14,23.47,39.08,39.08,0,0,1-15.65,16.75q-10.52,6.22-26.17,6.23-20.87,0-33.83-9.85t-14.8-26.67h28.44a13.62,13.62,0,0,0,6.39,8.5,23.38,23.38,0,0,0,12.46,3.11q8.91,0,14.22-5.13t5.3-16.41V147a32,32,0,0,1-11.61,10.69,35.07,35.07,0,0,1-17.34,4.12,38.53,38.53,0,0,1-21-6,41.3,41.3,0,0,1-14.89-17q-5.48-11-5.47-25.5t5.47-25.41a40.87,40.87,0,0,1,14.89-16.83,39,39,0,0,1,21-5.89A36.17,36.17,0,0,1,1545.78,69.2Zm5.55,27.26a20.23,20.23,0,0,0-29.11-.08q-6,6.15-6,16.91t6,17.09a20,20,0,0,0,29.11.08q6-6.23,6-17T1551.33,96.46Z" transform="translate(-43.76 -25.61)"/><path class="cls-2" d="M499.45,183.5v57.23H488V183.5Z" transform="translate(-43.76 -25.61)"/><path class="cls-2" d="M547.82,199.78q5,5.11,5,14.3v26.65H541.35V215.64c0-3.61-.91-6.38-2.71-8.32a9.57,9.57,0,0,0-7.38-2.91,9.81,9.81,0,0,0-7.5,2.91q-2.75,2.91-2.75,8.32v25.09H509.53V195.31H521V201a16,16,0,0,1,5.86-4.63,18.16,18.16,0,0,1,7.83-1.68Q542.83,194.65,547.82,199.78Z" transform="translate(-43.76 -25.61)"/><path class="cls-2" d="M600.79,199.78q5,5.11,5,14.3v26.65H594.31V215.64q0-5.41-2.7-8.32a9.6,9.6,0,0,0-7.38-2.91,9.81,9.81,0,0,0-7.5,2.91c-1.84,1.94-2.75,4.71-2.75,8.32v25.09H562.5V195.31H574V201a15.89,15.89,0,0,1,5.86-4.63,18.16,18.16,0,0,1,7.83-1.68Q595.79,194.65,600.79,199.78Z" transform="translate(-43.76 -25.61)"/><path class="cls-2" d="M623.83,238.56a20.93,20.93,0,0,1-8.24-8.24,24.68,24.68,0,0,1-3-12.3,24.15,24.15,0,0,1,3.07-12.3,21.35,21.35,0,0,1,8.41-8.24,25.73,25.73,0,0,1,23.77,0,21.42,21.42,0,0,1,8.41,8.24,24.25,24.25,0,0,1,3.07,12.3,23.66,23.66,0,0,1-3.16,12.3,21.83,21.83,0,0,1-8.52,8.24,24.83,24.83,0,0,1-12,2.91A23.92,23.92,0,0,1,623.83,238.56ZM641.5,230a11,11,0,0,0,4.38-4.55,15.27,15.27,0,0,0,1.65-7.38q0-6.48-3.41-10a11.16,11.16,0,0,0-8.32-3.49,10.9,10.9,0,0,0-8.24,3.49q-3.31,3.48-3.32,10t3.24,10a10.67,10.67,0,0,0,8.15,3.48A12,12,0,0,0,641.5,230Z" transform="translate(-43.76 -25.61)"/><path class="cls-2" d="M685.48,230.15,697,195.31h12.22l-16.81,45.42H678.43l-16.72-45.42H674Z" transform="translate(-43.76 -25.61)"/><path class="cls-2" d="M714.22,205.64a20.14,20.14,0,0,1,7.46-8.2,19.9,19.9,0,0,1,10.54-2.87,18.44,18.44,0,0,1,8.89,2.05,18,18,0,0,1,6.11,5.16v-6.47h11.56v45.42H747.22v-6.64a17.08,17.08,0,0,1-6.11,5.29,18.71,18.71,0,0,1-9,2.09,19.37,19.37,0,0,1-10.46-2.95,20.71,20.71,0,0,1-7.46-8.33,26.73,26.73,0,0,1-2.75-12.34A26.27,26.27,0,0,1,714.22,205.64Zm31.36,5.2a11.59,11.59,0,0,0-4.43-4.59,11.86,11.86,0,0,0-6-1.6,11.6,11.6,0,0,0-5.9,1.56,11.74,11.74,0,0,0-4.39,4.55,14.27,14.27,0,0,0-1.68,7.09,14.73,14.73,0,0,0,1.68,7.18,12.08,12.08,0,0,0,4.43,4.71,11.17,11.17,0,0,0,5.86,1.64,11.76,11.76,0,0,0,6-1.6,11.46,11.46,0,0,0,4.43-4.59,16.52,16.52,0,0,0,0-14.35Z" transform="translate(-43.76 -25.61)"/><path class="cls-2" d="M782.15,204.74v22a4.33,4.33,0,0,0,1.11,3.32,5.44,5.44,0,0,0,3.73,1h5.33v9.67H785.1q-14.51,0-14.51-14.1V204.74h-5.41v-9.43h5.41V184.07h11.56v11.24h10.17v9.43Z" transform="translate(-43.76 -25.61)"/><path class="cls-2" d="M800.14,188a6.72,6.72,0,0,1,0-9.59,7.56,7.56,0,0,1,10.09,0,6.72,6.72,0,0,1,0,9.59,7.56,7.56,0,0,1-10.09,0Zm10.7,7.34v45.42H799.36V195.31Z" transform="translate(-43.76 -25.61)"/><path class="cls-2" d="M829.29,238.56a21.06,21.06,0,0,1-8.24-8.24,24.78,24.78,0,0,1-3-12.3,24.15,24.15,0,0,1,3.07-12.3,21.48,21.48,0,0,1,8.41-8.24,25.75,25.75,0,0,1,23.78,0,21.39,21.39,0,0,1,8.4,8.24A24.15,24.15,0,0,1,864.8,218a23.76,23.76,0,0,1-3.16,12.3,21.92,21.92,0,0,1-8.53,8.24,24.79,24.79,0,0,1-12,2.91A24,24,0,0,1,829.29,238.56ZM847,230a11.09,11.09,0,0,0,4.39-4.55A15.39,15.39,0,0,0,853,218q0-6.48-3.4-10a11.18,11.18,0,0,0-8.33-3.49,10.93,10.93,0,0,0-8.24,3.49q-3.32,3.48-3.32,10t3.24,10a10.68,10.68,0,0,0,8.16,3.48A11.93,11.93,0,0,0,847,230Z" transform="translate(-43.76 -25.61)"/><path class="cls-2" d="M910.3,199.78q5,5.11,5,14.3v26.65H903.82V215.64q0-5.41-2.71-8.32a9.57,9.57,0,0,0-7.37-2.91,9.82,9.82,0,0,0-7.51,2.91q-2.75,2.91-2.74,8.32v25.09H872V195.31h11.48V201a15.89,15.89,0,0,1,5.86-4.63,18.16,18.16,0,0,1,7.83-1.68Q905.3,194.65,910.3,199.78Z" transform="translate(-43.76 -25.61)"/><path class="cls-2" d="M955.06,237.53a28.12,28.12,0,0,1-10.65-10.45,30.85,30.85,0,0,1,0-30.17,28.14,28.14,0,0,1,10.65-10.46,30.86,30.86,0,0,1,29.56,0,28,28,0,0,1,10.58,10.46,31.19,31.19,0,0,1,0,30.17,27.9,27.9,0,0,1-10.62,10.45,30.78,30.78,0,0,1-29.52,0Zm23.86-8.81a16,16,0,0,0,6.15-6.69,23.9,23.9,0,0,0,0-20.12,15.72,15.72,0,0,0-6.15-6.6,17.71,17.71,0,0,0-9.1-2.3,18,18,0,0,0-9.14,2.3,15.75,15.75,0,0,0-6.19,6.6,24,24,0,0,0,0,20.12,16,16,0,0,0,6.19,6.69,17.69,17.69,0,0,0,9.14,2.34A17.44,17.44,0,0,0,978.92,228.72Z" transform="translate(-43.76 -25.61)"/><path class="cls-2" d="M1023.65,196.7a16.11,16.11,0,0,1,8.16-2v12h-3q-5.41,0-8.16,2.54t-2.74,8.86v22.63h-11.48V195.31h11.48v7.05A16.07,16.07,0,0,1,1023.65,196.7Z" transform="translate(-43.76 -25.61)"/><path class="cls-2" d="M1065,196.58a16.5,16.5,0,0,1,6.07,5.2v-6.47h11.56v45.75a24.41,24.41,0,0,1-2.54,11.27,18.89,18.89,0,0,1-7.63,7.87,24.39,24.39,0,0,1-12.3,2.91q-9.68,0-15.86-4.51a16.66,16.66,0,0,1-7-12.3h11.39a8.48,8.48,0,0,0,3.9,5,13.63,13.63,0,0,0,7.25,1.84,11.25,11.25,0,0,0,8.12-3q3.12-3,3.12-9.06V234a17.65,17.65,0,0,1-6.11,5.33,18.25,18.25,0,0,1-8.9,2.13,19.57,19.57,0,0,1-10.49-2.95,20.58,20.58,0,0,1-7.5-8.33,26.61,26.61,0,0,1-2.75-12.34,26.15,26.15,0,0,1,2.75-12.21,20.07,20.07,0,0,1,7.46-8.2,19.87,19.87,0,0,1,10.53-2.87A19.07,19.07,0,0,1,1065,196.58Zm4.43,14.26a11.66,11.66,0,0,0-4.43-4.59,11.89,11.89,0,0,0-6-1.6,11.6,11.6,0,0,0-5.9,1.56,11.81,11.81,0,0,0-4.39,4.55,14.27,14.27,0,0,0-1.68,7.09,14.73,14.73,0,0,0,1.68,7.18,12.08,12.08,0,0,0,4.43,4.71,11.19,11.19,0,0,0,5.86,1.64,11.79,11.79,0,0,0,6-1.6,11.53,11.53,0,0,0,4.43-4.59,16.52,16.52,0,0,0,0-14.35Z" transform="translate(-43.76 -25.61)"/><path class="cls-2" d="M1092.43,205.64a20.1,20.1,0,0,1,7.47-8.2,19.87,19.87,0,0,1,10.53-2.87,18.48,18.48,0,0,1,8.9,2.05,18.16,18.16,0,0,1,6.11,5.16v-6.47H1137v45.42h-11.55v-6.64a17.25,17.25,0,0,1-6.11,5.29,18.75,18.75,0,0,1-9,2.09,19.34,19.34,0,0,1-10.45-2.95,20.66,20.66,0,0,1-7.47-8.33,26.73,26.73,0,0,1-2.74-12.34A26.27,26.27,0,0,1,1092.43,205.64Zm31.36,5.2a11.57,11.57,0,0,0-4.42-4.59,11.92,11.92,0,0,0-6-1.6,11.6,11.6,0,0,0-5.9,1.56,11.81,11.81,0,0,0-4.39,4.55,14.27,14.27,0,0,0-1.68,7.09,14.73,14.73,0,0,0,1.68,7.18,12.08,12.08,0,0,0,4.43,4.71,11.17,11.17,0,0,0,5.86,1.64,11.82,11.82,0,0,0,6-1.6,11.44,11.44,0,0,0,4.42-4.59,16.43,16.43,0,0,0,0-14.35Z" transform="translate(-43.76 -25.61)"/><path class="cls-2" d="M1185.29,199.78q5,5.11,5,14.3v26.65h-11.48V215.64q0-5.41-2.7-8.32a9.6,9.6,0,0,0-7.38-2.91,9.85,9.85,0,0,0-7.51,2.91q-2.74,2.91-2.74,8.32v25.09H1147V195.31h11.48V201a15.89,15.89,0,0,1,5.86-4.63,18.16,18.16,0,0,1,7.83-1.68Q1180.28,194.65,1185.29,199.78Z" transform="translate(-43.76 -25.61)"/><path class="cls-2" d="M1200.74,188a6.72,6.72,0,0,1,0-9.59,7.56,7.56,0,0,1,10.09,0,6.72,6.72,0,0,1,0,9.59,7.56,7.56,0,0,1-10.09,0Zm10.7,7.34v45.42H1200V195.31Z" transform="translate(-43.76 -25.61)"/><path class="cls-2" d="M1232,231.3h20.25v9.43H1219v-9.27l19.84-26.72h-19.76v-9.43h33v9.26Z" transform="translate(-43.76 -25.61)"/><path class="cls-2" d="M1259.7,205.64a19.68,19.68,0,0,1,18-11.07,18.48,18.48,0,0,1,8.9,2.05,18.16,18.16,0,0,1,6.11,5.16v-6.47h11.56v45.42H1292.7v-6.64a17.25,17.25,0,0,1-6.11,5.29,18.75,18.75,0,0,1-9,2.09,19.34,19.34,0,0,1-10.45-2.95,20.56,20.56,0,0,1-7.46-8.33,26.61,26.61,0,0,1-2.75-12.34A26.15,26.15,0,0,1,1259.7,205.64Zm31.36,5.2a11.66,11.66,0,0,0-4.43-4.59,11.92,11.92,0,0,0-6-1.6,11.6,11.6,0,0,0-5.9,1.56,11.81,11.81,0,0,0-4.39,4.55,14.27,14.27,0,0,0-1.68,7.09,14.73,14.73,0,0,0,1.68,7.18,12.08,12.08,0,0,0,4.43,4.71,11.17,11.17,0,0,0,5.86,1.64,11.82,11.82,0,0,0,6-1.6,11.53,11.53,0,0,0,4.43-4.59,16.52,16.52,0,0,0,0-14.35Z" transform="translate(-43.76 -25.61)"/><path class="cls-2" d="M1327.62,204.74v22a4.33,4.33,0,0,0,1.11,3.32,5.45,5.45,0,0,0,3.73,1h5.33v9.67h-7.22q-14.5,0-14.51-14.1V204.74h-5.41v-9.43h5.41V184.07h11.56v11.24h10.17v9.43Z" transform="translate(-43.76 -25.61)"/><path class="cls-2" d="M1345.62,188a6.72,6.72,0,0,1,0-9.59,7.55,7.55,0,0,1,10.08,0,6.72,6.72,0,0,1,0,9.59,7.55,7.55,0,0,1-10.08,0Zm10.7,7.34v45.42h-11.48V195.31Z" transform="translate(-43.76 -25.61)"/><path class="cls-2" d="M1374.77,238.56a20.93,20.93,0,0,1-8.24-8.24,24.68,24.68,0,0,1-3-12.3,24.15,24.15,0,0,1,3.08-12.3,21.39,21.39,0,0,1,8.4-8.24,25.75,25.75,0,0,1,23.78,0,21.39,21.39,0,0,1,8.4,8.24,24.15,24.15,0,0,1,3.08,12.3,23.66,23.66,0,0,1-3.16,12.3,21.83,21.83,0,0,1-8.52,8.24,24.83,24.83,0,0,1-12,2.91A23.89,23.89,0,0,1,1374.77,238.56Zm17.66-8.61a11,11,0,0,0,4.39-4.55,15.27,15.27,0,0,0,1.64-7.38q0-6.48-3.4-10a11.16,11.16,0,0,0-8.32-3.49,10.9,10.9,0,0,0-8.24,3.49q-3.33,3.48-3.32,10c0,4.32,1.07,7.64,3.24,10a10.64,10.64,0,0,0,8.15,3.48A11.93,11.93,0,0,0,1392.43,230Z" transform="translate(-43.76 -25.61)"/><path class="cls-2" d="M1455.77,199.78q5,5.11,5,14.3v26.65h-11.48V215.64q0-5.41-2.7-8.32a9.6,9.6,0,0,0-7.38-2.91,9.81,9.81,0,0,0-7.5,2.91q-2.74,2.91-2.75,8.32v25.09h-11.48V195.31H1429V201a15.89,15.89,0,0,1,5.86-4.63,18.16,18.16,0,0,1,7.83-1.68Q1450.77,194.65,1455.77,199.78Z" transform="translate(-43.76 -25.61)"/><path class="cls-1" d="M1700.36,66.34l-58.91,138.51h-31l21.54-47.8-38.2-90.71H1626l21.71,58.74,21.54-58.74Z" transform="translate(-43.76 -25.61)"/><path class="cls-3" d="M128.34,245.6q0-10.29-6.61-15.93T102.86,224H71.5v42.88h31.36q12.24,0,18.87-5.51T128.34,245.6Z" transform="translate(-43.76 -25.61)"/><path class="cls-4" d="M71.5,339.45H106q12.49,0,19.49-5.88t7-16.66q0-11-7.36-17.28t-19.84-6.25H71.5Z" transform="translate(-43.76 -25.61)"/><path class="cls-5" d="M240.32,39.26c-102.27,0-187,69.26-196.56,157.08h64q17.38,0,30,5.64t19.12,15.68a41.15,41.15,0,0,1,6.49,22.79q0,15-8,25a42.65,42.65,0,0,1-21.2,14.22A38.47,38.47,0,0,1,158,294.12a42.19,42.19,0,0,1,9.31,26.95,43.4,43.4,0,0,1-6.74,24.13q-6.74,10.43-19.47,16.3a59.56,59.56,0,0,1-6.74,2.6h56.72V237.25h34.3V364.09H230A221.9,221.9,0,0,0,277.35,359a62.66,62.66,0,0,1-21.47-22.75q-8.94-15.92-8.94-36.75t9.19-36.76a63.88,63.88,0,0,1,25.12-24.63,76.9,76.9,0,0,1,71.06,0,64,64,0,0,1,25.12,24.63q8.38,14.56,9.11,33.21A169,169,0,0,0,416,248.56C426.44,227.47,427,202,427,202c.3-3.86.66-162.76.66-162.76Zm-9.38,161.25c0,9.9-9.2,18-20.46,18H191.07s0-16.46.07-16.86a13,13,0,0,1,1.13-4.82c2.83-7,10.42-12,19.27-12h19.4Z" transform="translate(-43.76 -25.61)"/><path id="SVGID" class="cls-6" d="M333.31,335.05a32.85,32.85,0,0,0,13.1-13.6q4.9-9.06,4.91-22,0-19.35-10.17-29.76a33.41,33.41,0,0,0-24.86-10.41,32.63,32.63,0,0,0-24.62,10.41q-9.92,10.41-9.92,29.76t9.68,29.76q9.68,10.41,24.37,10.41A35.68,35.68,0,0,0,333.31,335.05Z" transform="translate(-43.76 -25.61)"/><path class="cls-7" d="M210.48,218.51c11.26,0,20.46-8.1,20.46-18V184.85h-19.4c-8.85,0-16.44,5-19.27,12a13,13,0,0,0-1.13,4.82c0,.4-.07,16.86-.07,16.86Z" transform="translate(-43.76 -25.61)"/></svg>